#!OML:ASF H:\MichaelJackson\Top Level 1\Subject 1\Session 1\male.ASF
:FULLY-SPECIFIED
:DEGREES
613
root 4.66936 16.0593 29.7716 -369.174 1.37537 -5.13044
lowerback 7.83368 1.9592 -3.32986
upperback 1.43289 2.42062 2.55586
thorax -3.15515 1.25196 4.27274
lowerneck -6.6324 -5.02999 1.73182
upperneck 4.81529 -7.03584 2.42823
head 2.71002 -3.37999 0.174125
rclavicle -1.69091e-014 -1.35174e-014
rhumerus -36.5702 8.54476 -70.3826
rradius 68.6268
rwrist 5.63515
rhand -26.4614 -19.3274
rfingers 7.12502
rthumb 0.100078 -409.307
lclavicle -1.69091e-014 -1.35174e-014
lhumerus -48.0664 -4.28804 77.6717
lradius 48.0341
lwrist 19.2275
lhand 0.73782 11.0726
lfingers 7.12502
lthumb 26.2969 39.2699
rfemur -42.4024 -18.4719 7.61749
rtibia 111.837
rfoot 36.4706 21.2632
rtoes 10.6093
lfemur -27.1094 13.1091 -16.7827
ltibia 46.7464
lfoot -9.27771 -13.0482
ltoes 29.7379
614
root 4.66488 16.0642 29.8518 -369.931 1.78593 -4.96707
lowerback 8.69169 1.6448 -3.56563
upperback 1.738 1.95334 2.45024
thorax -3.27244 1.01719 4.33423
lowerneck -6.69477 -4.87389 1.79651
upperneck 4.73967 -6.83413 2.4577
head 2.69419 -3.27837 0.18078
rclavicle 6.49777e-015 -1.70955e-014
rhumerus -37.2351 8.06295 -69.6132
rradius 68.3875
rwrist 9.08971
rhand -27.1429 -20.8456
rfingers 7.12502
rthumb -0.55806 -410.825
lclavicle 6.49777e-015 -1.70955e-014
lhumerus -47.2551 -5.08409 77.8058
lradius 47.8712
lwrist 18.8569
lhand 1.39825 11.0322
lfingers 7.12502
lthumb 26.929 39.1335
rfemur -45.6351 -17.8819 6.9762
rtibia 113.429
rfoot 36.414 21.3518
rtoes 11.5452
lfemur -26.0623 13.3441 -16.8516
ltibia 46.8361
lfoot -9.68166 -13.5071
ltoes 29.1789
615
root 4.65823 16.0706 29.9299 -370.755 2.23585 -4.86827
lowerback 9.60588 1.32844 -3.76782
upperback 2.07651 1.482 2.36224
thorax -3.38119 0.779478 4.40385
lowerneck -6.7098 -4.72623 1.86702
upperneck 4.6003 -6.64034 2.4817
head 2.64766 -3.18249 0.18671
rclavicle -3.70485e-014 -3.22031e-014
rhumerus -37.9198 7.58248 -68.831
rradius 68.1829
rwrist 12.3667
rhand -27.517 -22.2501
rfingers 7.12502
rthumb -0.919452 -412.228
lclavicle -3.70485e-014 -3.22031e-014
lhumerus -46.411 -5.92283 77.9425
lradius 47.7541
lwrist 18.4886
lhand 1.97061 11.1048
lfingers 7.12502
lthumb 27.4765 39.1205
rfemur -48.692 -17.1562 6.45345
rtibia 114.231
rfoot 36.4296 20.8207
rtoes 12.3457
lfemur -24.9324 13.5403 -16.8239
ltibia 46.8877
lfoot -10.0633 -13.9704
ltoes 28.5998
616
root 4.65008 16.0788 30.0064 -371.633 2.70326 -4.82929
lowerback 10.5583 1.01421 -3.93801
upperback 2.44264 1.01322 2.28883
thorax -3.47775 0.542119 4.47928
lowerneck -6.69115 -4.58329 1.94779
upperneck 4.42713 -6.45139 2.5021
head 2.58317 -3.08999 0.190845
rclavicle -2.2736e-015 -3.06128e-014
rhumerus -38.6028 7.09397 -68.0461
rradius 67.9989
rwrist 15.2921
rhand -27.5858 -23.4147
rfingers 7.12502
rthumb -0.985917 -413.392
lclavicle -2.2736e-015 -3.06128e-014
lhumerus -45.5431 -6.79231 78.0766
lradius 47.6685
lwrist 18.1443
lhand 2.37593 11.1673
lfingers 7.12502
lthumb 27.8641 39.1207
rfemur -51.4946 -16.2742 6.0424
rtibia 114.176
rfoot 36.3459 19.8363
rtoes 12.8773
lfemur -23.7261 13.7098 -16.7017
ltibia 46.8948
lfoot -10.4189 -14.4439
ltoes 28.0226
617
root 4.64114 16.0889 30.0814 -372.549 3.16939 -4.835
lowerback 11.531 0.706773 -4.08424
upperback 2.82952 0.553523 2.22365
thorax -3.55971 0.308453 4.55771
lowerneck -6.64758 -4.44247 2.04063
upperneck 4.24236 -6.26503 2.52148
head 2.51 -2.99915 0.193114
rclavicle 2.71465e-015 8.74653e-015
rhumerus -39.2657 6.58206 -67.2697
rradius 67.8244
rwrist 17.7185
rhand -27.3897 -24.294
rfingers 7.12502
rthumb -0.796438 -414.272
lclavicle 2.71465e-015 8.74653e-015
lhumerus -44.6538 -7.68454 78.2054
lradius 47.5966
lwrist 17.8214
lhand 2.58656 11.1718
lfingers 7.12502
lthumb 28.0654 39.0925
rfemur -53.9734 -15.2418 5.71363
rtibia 113.225
rfoot 35.9436 18.5735
rtoes 13.1309
lfemur -22.4531 13.863 -16.4998
ltibia 46.8526
lfoot -10.7484 -14.9296
ltoes 27.5361
618
root 4.63208 16.101 30.1551 -373.475 3.6185 -4.87013
lowerback 12.5011 0.409193 -4.21086
upperback 3.22755 0.107611 2.15812
thorax -3.62493 0.0809263 4.63144
lowerneck -6.60274 -4.30193 2.1454
upperneck 4.07605 -6.0809 2.54622
head 2.44296 -2.90879 0.194466
rclavicle -6.08778e-016 -5.56597e-015
rhumerus -39.8998 6.02547 -66.5169
rradius 67.658
rwrist 19.5483
rhand -26.9538 -24.8637
rfingers 7.12502
rthumb -0.375501 -414.843
lclavicle -6.08778e-016 -5.56597e-015
lhumerus -43.7398 -8.60464 78.3254
lradius 47.5201
lwrist 17.5447
lhand 2.63764 11.1089
lfingers 7.12502
lthumb 28.1142 39.0216
rfemur -56.08 -14.0941 5.43782
rtibia 111.365
rfoot 34.9781 17.2587
rtoes 12.9325
lfemur -21.1394 14.0086 -16.2378
ltibia 46.7583
lfoot -11.046 -15.4267
ltoes 27.1549
619
root 4.62374 16.1151 30.2274 -374.381 4.03666 -4.91958
lowerback 13.4439 0.12255 -4.31882
upperback 3.62774 -0.321945 2.08669
thorax -3.66986 -0.139114 4.69372
lowerneck -6.57525 -4.15991 2.26453
upperneck 3.94526 -5.89754 2.56769
head 2.39073 -2.81792 0.19116
rclavicle 8.82107e-016 1.39149e-014
rhumerus -40.4967 5.41089 -65.7959
rradius 67.5071
rwrist 20.7349
rhand -26.3127 -25.1791
rfingers 7.12502
rthumb 0.243745 -415.159
lclavicle 8.82107e-016 1.39149e-014
lhumerus -42.7868 -9.54556 78.4333
lradius 47.4191
lwrist 17.3273
lhand 2.55289 10.9744
lfingers 7.12502
lthumb 28.0332 38.9003
rfemur -57.785 -12.8753 5.18133
rtibia 108.597
rfoot 33.3473 15.977
rtoes 12.3112
lfemur -19.8149 14.1479 -15.9394
ltibia 46.6065
lfoot -11.313 -15.9202
ltoes 26.8535
620
root 4.61685 16.1316 30.298 -375.23 4.41118 -4.96791
lowerback 14.334 -0.152534 -4.40908
upperback 4.02203 -0.733147 2.00521
thorax -3.6901 -0.350637 4.73875
lowerneck -6.58715 -4.01262 2.39544
upperneck 3.85881 -5.7106 2.58194
head 2.36024 -2.72412 0.181996
rclavicle 1.35236e-014 8.74653e-015
rhumerus -41.0498 4.7269 -65.1118
rradius 67.3786
rwrist 21.2749
rhand -25.5087 -25.2924
rfingers 7.12502
rthumb 1.02021 -415.27
lclavicle 1.35236e-014 8.74653e-015
lhumerus -41.7865 -10.5075 78.5257
lradius 47.2859
lwrist 17.1838
lhand 2.3586 10.7478
lfingers 7.12502
lthumb 27.8475 38.7039
rfemur -59.09 -11.6288 4.91388
rtibia 104.931
rfoot 31.1022 14.689
rtoes 11.4295
lfemur -18.5101 14.2837 -15.6309
ltibia 46.3884
lfoot -11.5533 -16.3925
ltoes 26.5744
